<svg xmlns="http://www.w3.org/2000/svg" version="1.1" xmlns:xlink="http://www.w3.org/1999/xlink" width="512" height="512" x="0" y="0" viewBox="0 0 512 512" style="enable-background:new 0 0 512 512" xml:space="preserve" class=""><g><path d="M256 0C114.844 0 0 114.844 0 256s114.844 256 256 256 256-114.844 256-256S397.156 0 256 0z" style="" fill="#303c42" data-original="#303c42"></path><path d="M490.303 248.826c-60.056-1.371-116.221-25.589-158.876-68.253-42.667-42.656-66.457-98.76-68.19-158.872 123.628 3.796 223.302 103.488 227.066 227.125zM21.699 263.223c60.702 1.648 116.204 25.516 158.874 68.204 42.667 42.656 66.457 98.76 68.19 158.872-123.611-3.796-223.275-103.463-227.064-227.076z" style="" fill="#c6ff00" data-original="#c6ff00"></path><path d="M270.074 489.954c-1.818-65.68-27.799-127.001-74.418-173.611-46.628-46.628-107.688-73.012-173.607-74.477 7.088-118.125 101.743-212.762 219.877-219.82 1.818 65.68 27.799 127.001 74.418 173.611 46.617 46.628 107.917 72.664 173.607 74.482-7.092 118.123-101.745 212.757-219.877 219.815z" style="" fill="#e6e6e6" data-original="#e6e6e6"></path><path d="M270.074 489.954c-1.818-65.68-27.799-127.001-74.418-173.611-46.628-46.628-107.688-73.012-173.607-74.477 7.088-118.125 101.743-212.762 219.877-219.82 1.818 65.68 27.799 127.001 74.418 173.611 46.617 46.628 107.917 72.664 173.607 74.482-7.092 118.123-101.745 212.757-219.877 219.815z" style="" fill="#c6ff00" data-original="#c6ff00"></path><path d="M432.388 239.889c18.672 5.297 38.043 8.483 57.915 8.936-2.1-68.997-34.115-130.49-83.449-172.066 19.313 34.079 30.479 73.352 30.479 115.241a234.67 234.67 0 0 1-4.945 47.889zM52.547 372.161c39.298 68.604 112.178 115.557 196.216 118.138-.661-22.923-4.576-45.245-11.475-66.478-11.329 1.688-22.829 2.845-34.621 2.845-57.064.001-109.399-20.516-150.12-54.505zM258.358 419.711c7.046 22.486 11.047 46.06 11.716 70.243 118.132-7.059 212.785-101.693 219.876-219.816-21.572-.596-42.586-4.059-62.846-9.75-24.012 78.635-88.337 139.641-168.746 159.323z" style="opacity:0.1;enable-background:new ;" fill="#000000" opacity="1" data-original="#000000"></path><linearGradient id="a" x1="-45.578" x2="-23.828" y1="639.555" y2="629.414" gradientTransform="matrix(21.3333 0 0 -21.3333 996.333 13791.667)" gradientUnits="userSpaceOnUse"><stop offset="0" style="stop-color:#FFFFFF;stop-opacity:0.2" stop-color="#ffffff;stop-opacity:0.2"></stop><stop offset="1" style="stop-color:#FFFFFF;stop-opacity:0" stop-color="#ffffff;stop-opacity:0"></stop></linearGradient><path d="M256 0C114.844 0 0 114.844 0 256s114.844 256 256 256 256-114.844 256-256S397.156 0 256 0z" style="fill:url(#a);" fill=""></path></g></svg>